<?xml version="1.0" encoding="UTF-8" standalone="no"?>
<svg
   width="2500"
   height="2500"
   viewBox="0 0 192.756 192.756"
   version="1.1"
   id="svg584"
   sodipodi:docname="came.svg"
   inkscape:version="1.1.1 (3bf5ae0d25, 2021-09-20)"
   xmlns:inkscape="http://www.inkscape.org/namespaces/inkscape"
   xmlns:sodipodi="http://sodipodi.sourceforge.net/DTD/sodipodi-0.dtd"
   xmlns="http://www.w3.org/2000/svg"
   xmlns:svg="http://www.w3.org/2000/svg">
  <defs
     id="defs588" />
  <sodipodi:namedview
     id="namedview586"
     pagecolor="#ffffff"
     bordercolor="#666666"
     borderopacity="1.0"
     inkscape:pageshadow="2"
     inkscape:pageopacity="0.0"
     inkscape:pagecheckerboard="0"
     showgrid="false"
     inkscape:zoom="0.065"
     inkscape:cx="-69.230769"
     inkscape:cy="2623.0769"
     inkscape:window-width="1600"
     inkscape:window-height="835"
     inkscape:window-x="0"
     inkscape:window-y="32"
     inkscape:window-maximized="1"
     inkscape:current-layer="g582" />
  <g
     fill-rule="evenodd"
     clip-rule="evenodd"
     id="g582">
    <path
       d="m 8.2163923,155.36457 c 0.115,-3.473 0.666,-6.568 1.637,-9.283 0.9709997,-2.707 2.3399997,-5.01 4.1069997,-6.898 1.766,-1.889 3.9,-3.32 6.4,-4.307 2.501,-0.979 5.285,-1.469 8.352,-1.469 2.73,0 5.216,0.367 7.457,1.109 2.249,0.734 4.183,1.805 5.812,3.213 a 14.891,14.891 0 0 1 3.824,5.131 c 0.925,2.02 1.445,4.268 1.567,6.754 h -9.116 c 0,-1.225 -0.313,-2.502 -0.94,-3.832 -0.627,-1.332 -1.621,-2.447 -2.982,-3.357 -1.354,-0.91 -3.067,-1.369 -5.125,-1.369 -3.754,0 -6.683,1.484 -8.787,4.451 -2.103,2.967 -3.151,6.891 -3.151,11.762 0,2.225 0.451,4.459 1.346,6.699 0.895,2.232 2.171,4.061 3.839,5.484 1.66,1.414 3.579,2.125 5.766,2.125 1.614,0 3.144,-0.268 4.596,-0.803 1.453,-0.543 2.685,-1.453 3.702,-2.738 1.009,-1.285 1.59,-2.959 1.736,-5.016 h 9.116 c 0.039,0.244 0.054,0.656 0.054,1.223 0,1.844 -0.482,3.709 -1.453,5.605 -0.972,1.896 -2.325,3.625 -4.054,5.193 -1.736,1.566 -3.747,2.822 -6.042,3.754 a 18.666,18.666 0 0 1 -7.166,1.408 c -3.778,0 -7.235,-0.91 -10.37,-2.738 -3.136,-1.828 -5.621,-4.535 -7.449,-8.113 -1.8279997,-3.58 -2.7379997,-7.855 -2.7379997,-12.818 0,-0.131 0.008,-0.328 0.03,-0.58 a 6.3,6.3 0 0 0 0.032,-0.59 z m 42.9489997,22.944 15.295,-44.479 h 11.004 l 15.295,44.479 h -9.529 l -3.373,-9.055 h -16.203 l -2.883,9.055 z m 21.046,-33.475 -5.261,16.771 h 10.515 z m 25.391,33.475 v -44.479 h 13.335998 l 8.137,33.473 8.146,-33.473 h 13.32 v 44.479 h -9.053 v -35.355 l -7.648,35.355 h -9.537 l -7.646,-35.355 v 35.355 z m 51.138998,0 v -44.479 h 32.494 v 8.137 h -23.439 v 10.033 h 21.482 v 7.158 h -21.482 v 11.992 h 24.35 v 7.158 h -33.405 z"
       id="path574" />
    <path
       fill="#00acec"
       d="M 8.6433923,13.691567 H 182.14339 v 60.62 H 8.6433923 Z"
       id="path576" />
    <path
       fill="#00acec"
       d="m 8.6433923,13.691567 139.7929977,49.778 V 124.08957 L 8.6433923,74.311567 Z"
       id="path578" />
    <path
       fill="#ffffff"
       d="M 146.76039,64.651567 V 121.71657 L 10.318392,73.129567 v -57.064 z"
       id="path580" />
  </g>
</svg>
