<?xml version="1.0" encoding="UTF-8" standalone="no"?>
<svg
   height="334"
   viewBox="0 -0.116 157.501 26.2524786925388"
   width="2500"
   version="1.1"
   id="svg59"
   sodipodi:docname="hikvision-logo.svg"
   inkscape:version="1.1.1 (3bf5ae0d25, 2021-09-20)"
   xmlns:inkscape="http://www.inkscape.org/namespaces/inkscape"
   xmlns:sodipodi="http://sodipodi.sourceforge.net/DTD/sodipodi-0.dtd"
   xmlns="http://www.w3.org/2000/svg"
   xmlns:svg="http://www.w3.org/2000/svg">
  <defs
     id="defs63" />
  <sodipodi:namedview
     id="namedview61"
     pagecolor="#ffffff"
     bordercolor="#666666"
     borderopacity="1.0"
     inkscape:pageshadow="2"
     inkscape:pageopacity="0.0"
     inkscape:pagecheckerboard="0"
     showgrid="false"
     inkscape:zoom="0.27577164"
     inkscape:cx="1154.9411"
     inkscape:cy="600.13422"
     inkscape:window-width="1600"
     inkscape:window-height="835"
     inkscape:window-x="0"
     inkscape:window-y="32"
     inkscape:window-maximized="1"
     inkscape:current-layer="svg59" />
  <path
     d="m 123.117,2.6824083 c -3.764,-0.126 -7.833,2.0400002 -9.763,6.1180002 -1.198,2.3019965 -2.112,4.8639915 -2.72,7.3799915 a 22.16,22.16 0 0 0 -0.152,0.665 c -0.06,0.358 -0.065,0.817 -0.033,1.285 0.149,1.98 1.907,4.374 4.805,4.51 h 3.436 c 3.763,0.125 7.83,-2.042 9.762,-6.12 1.198,-2.302 2.111,-4.865997 2.719,-7.3799915 0.054,-0.224 0.106,-0.446 0.152,-0.666 0.063,-0.359 0.067,-0.816 0.033,-1.285 -0.148,-1.981 -1.907,-4.3730002 -4.804,-4.5080002 h -3.436 z m -64.533,0.182 1.539,19.5819917 h 3.086 -0.018 0.182 a 1.86,1.86 0 0 0 1.488,-0.828 h 0.002 L 77.445,2.8654083 H 74.191 L 65.178,16.3254 64.12,2.8664083 h -5.537 z m 21.11,0 L 72.473,22.4464 h 5.543 L 85.234,2.8654083 h -5.54 z m 13.005,0 c -4.979,0.06 -7.179,5.6000002 -4.459,9.1479937 1.38,1.684998 3.35,3.431998 4.463,5.276998 0.705,0.998 -0.049,2.662 -1.396,2.678 h -8.791 l -0.91,2.479 h 11.13 c 4.363,-0.013 7.315,-5.15 4.387,-9.09 -1.351,-1.995996 -3.494,-3.3589915 -4.762,-5.3089915 -0.753,-1.017 0.004,-2.687 1.366,-2.705 h 8.182 L 102.82,2.8644083 H 92.7 Z m 13.957,0 L 99.44,22.4474 h 5.541 L 112.2,2.8654083 h -5.544 z m 29.918,0 -7.25,19.5819917 h 2.856 l 4.996,-13.4959915 0.025,0.242 4.488,12.1199915 a 1.86,1.86 0 0 0 1.612,1.134 h 2.611 l 7.252,-19.5809917 h -2.855 L 145.409,16.0994 140.19,2.8654083 h -3.617 z m -12.191,1.8420002 c 1.045,0.08 1.875,0.959 1.875,2.025 0.008,0.262 -0.037,0.521 -0.135,0.758 L 122.461,17.4614 c -0.739,1.914 -2.456,3.087 -4.496,3.147 h -0.541 a 2.037,2.037 0 0 1 -1.875,-2.026 1.828,1.828 0 0 1 0.137,-0.76 l 3.66,-9.9719915 c 0.74,-1.914 2.457,-3.084 4.5,-3.143 h 0.537 z"
     fill="#6c6e71"
     id="path53"
     style="fill:#6ea8ff;fill-opacity:1"
     inkscape:export-filename="/home/cintatic/Pictures/Cintatic/path55.png"
     inkscape:export-xdpi="96"
     inkscape:export-ydpi="96" />
  <path
     d="M 7.22,2.8654083 0,22.4474 h 5.885 l 3.453,-9.365 h 7.006 l -3.453,9.365 h 4.597 c 0.778,0 1.446,-0.491 1.717,-1.176 0.003,-0.01 0.006,-0.013 0.01,-0.018 L 25.995,2.8644083 H 20.11 l -2.78,7.5399987 h -7.006 l 2.78,-7.5399987 H 7.22 Z m 22.514,0 L 22.516,22.4474 h 5.882 l 7.22,-19.5819917 h -5.885 z m 9.887,0 L 32.402,22.4474 h 5.883 l 2.768,-7.51 1.47,-1.129 3.903,7.566 0.002,-0.01 0.01,0.018 a 1.862,1.862 0 0 0 1.799,1.05 c -0.014,0 -0.03,0.01 -0.045,0.01 h 4.996 L 46.973,10.389407 56.776,2.8634083 h -4.397 l -9.59,7.3629997 2.715,-7.3629997 h -5.883 z"
     fill="#d71820"
     id="path55"
     style="fill:#2563eb;fill-opacity:1"
     inkscape:export-filename="/home/cintatic/Pictures/Cintatic/path55.png"
     inkscape:export-xdpi="96"
     inkscape:export-ydpi="96" />
  <path
     d="M157.501 1.924c0 1.091-.856 1.946-1.97 1.946-1.102 0-1.98-.855-1.98-1.946 0-1.068.878-1.924 1.98-1.924 1.114 0 1.97.856 1.97 1.924m-3.458 0c0 .856.632 1.536 1.5 1.536.845 0 1.466-.68 1.466-1.525 0-.855-.621-1.548-1.478-1.548s-1.488.693-1.488 1.537m1.183 1.008h-.445V1.01a3.89 3.89 0 0 1 .74-.06c.362 0 .527.06.667.142a.532.532 0 0 1 .187.422c0 .212-.164.375-.399.445v.024c.188.07.294.212.353.47.059.293.094.41.14.48h-.48c-.059-.07-.094-.246-.153-.468-.035-.212-.152-.305-.398-.305h-.212v.773zm.012-1.09h.21c.247 0 .447-.082.447-.282 0-.175-.129-.292-.411-.292-.116 0-.199.01-.246.023v.55z"
     fill="#6c6e71"
     id="path57"
     style="fill:#6ea8ff;fill-opacity:1" />
</svg>
