<?xml version="1.0" encoding="UTF-8" standalone="no"?>
<svg
   enable-background="new 0 0 2489.7 441"
   viewBox="0 0 2489.7 441"
   version="1.1"
   id="svg70"
   sodipodi:docname="honeywell-logo.svg"
   inkscape:version="1.1.1 (3bf5ae0d25, 2021-09-20)"
   xmlns:inkscape="http://www.inkscape.org/namespaces/inkscape"
   xmlns:sodipodi="http://sodipodi.sourceforge.net/DTD/sodipodi-0.dtd"
   xmlns="http://www.w3.org/2000/svg"
   xmlns:svg="http://www.w3.org/2000/svg">
  <defs
     id="defs74" />
  <sodipodi:namedview
     id="namedview72"
     pagecolor="#ffffff"
     bordercolor="#666666"
     borderopacity="1.0"
     inkscape:pageshadow="2"
     inkscape:pageopacity="0.0"
     inkscape:pagecheckerboard="0"
     showgrid="false"
     inkscape:zoom="0.18588641"
     inkscape:cx="1256.1435"
     inkscape:cy="255.5324"
     inkscape:window-width="1600"
     inkscape:window-height="835"
     inkscape:window-x="0"
     inkscape:window-y="32"
     inkscape:window-maximized="1"
     inkscape:current-layer="svg70" />
  <g
     fill="#de1e34"
     id="g68"
     style="fill:#2563eb;fill-opacity:1">
    <path
       d="m2256 336.6h94.6v-336.6h-94.6zm233.7-336.6v336.6h-94.6v-336.6zm-2288 130.7h-76.5v-130.7h-125.2v336.6h125.2v-166.9h76.5v166.9h125.2v-336.6h-125.2zm587.6-5.5-7.7-22.2h-102.9v233.7h102.9v-140.6c0-30.6 19.5-47.3 36.2-47.3 13.9 0 32 2.8 32 33.4v154.4h102.9v-151.6c0-84.9-95.2-118.2-163.4-59.8zm1057.1 113.3-48-135.6h-70.2l-48 141.2-50.1-141.2h-137.7l-49.4 118.9-69.5-118.9h-117.5l138.4 236.5-18.1 44.5c-6.3 13.9-21.3 14.6-24.2 1.4 0-23.9-19.4-43.3-43.3-43.3s-43.3 19.4-43.3 43.3c.2 25 25.2 57.7 74.6 55.6s70.2-43.1 77.2-60.5l114.4-276.6 82.4 232.8h75.1l45.9-134.2 47.3 134.2h70.9l80-233.7h-41zm-1342.2-147.5c-78.8 0-142.6 58.6-142.6 130.8 0 72.3 63.8 130.8 142.6 130.8s142.6-58.6 142.6-130.8-63.8-130.8-142.6-130.8zm35.5 192c0 19.6-15.9 35.5-35.5 35.5-19.6 0-35.5-15.9-35.5-35.5v-122.3c0-19.6 15.9-35.5 35.5-35.5s35.5 15.9 35.5 35.4z"
       id="path64"
       style="fill:#2563eb;fill-opacity:1" />
    <path
       d="m1267.4 240.6c.7-5.5 1.1-13.1 1.1-18.8 0-72.2-63.8-130.8-142.6-130.8s-142.6 58.6-142.6 130.8c0 72.3 63.8 130.8 142.6 130.8 54.1 0 101.2-27.7 125.4-68.4l-31.5-11.7c-19 29.1-53.9 48.6-93.9 48.6-19.6 0-35.5-18.5-35.5-38.1v-42.4zm-176.9-79.9c0-19.6 15.9-35.4 35.5-35.4s35.5 15.9 35.5 35.4v46.6h-70.9v-46.6zm1129.6 79.9c.8-5.5 1.2-13.1 1.2-18.8 0-72.2-63.8-130.8-142.6-130.8s-142.6 58.6-142.6 130.8c0 72.3 63.8 130.8 142.6 130.8 54.1 0 101.2-27.7 125.4-68.4l-31.5-11.7c-19 29.1-53.9 48.6-93.9 48.6-19.6 0-35.5-18.5-35.5-38.1v-42.4zm-176.9-79.9c0-19.6 15.9-35.4 35.5-35.4s35.5 15.9 35.5 35.4v46.6h-70.9z"
       id="path66"
       style="fill:#2563eb;fill-opacity:1" />
  </g>
</svg>
