<?xml version="1.0" encoding="UTF-8" standalone="no"?>
<svg
   width="2500"
   height="2500"
   viewBox="0 0 192.756 192.756"
   version="1.1"
   id="svg12"
   sodipodi:docname="rbh.svg"
   inkscape:version="1.1.1 (3bf5ae0d25, 2021-09-20)"
   xmlns:inkscape="http://www.inkscape.org/namespaces/inkscape"
   xmlns:sodipodi="http://sodipodi.sourceforge.net/DTD/sodipodi-0.dtd"
   xmlns="http://www.w3.org/2000/svg"
   xmlns:svg="http://www.w3.org/2000/svg">
  <defs
     id="defs16">
    <inkscape:perspective
       sodipodi:type="inkscape:persp3d"
       inkscape:vp_x="0 : 96.378 : 1"
       inkscape:vp_y="0 : 1000 : 0"
       inkscape:vp_z="192.756 : 96.378 : 1"
       inkscape:persp3d-origin="96.378 : 64.252 : 1"
       id="perspective252" />
  </defs>
  <sodipodi:namedview
     id="namedview14"
     pagecolor="#ffffff"
     bordercolor="#666666"
     borderopacity="1.0"
     inkscape:pageshadow="2"
     inkscape:pageopacity="0.0"
     inkscape:pagecheckerboard="0"
     showgrid="false"
     inkscape:zoom="0.18384776"
     inkscape:cx="1008.987"
     inkscape:cy="943.71559"
     inkscape:window-width="1600"
     inkscape:window-height="835"
     inkscape:window-x="0"
     inkscape:window-y="32"
     inkscape:window-maximized="1"
     inkscape:current-layer="g10" />
  <g
     fill-rule="evenodd"
     clip-rule="evenodd"
     id="g10">
    <path
       d="m 50.767278,157.31111 h 11.782966 c 2.16511,0 4.810213,0.72128 4.810213,2.88639 0,2.16382 -2.405106,2.8851 -4.328934,2.8851 H 50.767278 Z m -8.897866,18.27701 h 8.897866 v -8.1753 h 11.301689 c 2.886384,0 5.050209,0.72127 5.050209,3.84637 0,2.40511 0,3.12639 0.721276,4.32893 h 10.099135 c -1.68383,-1.20383 -1.923828,-3.84765 -1.923828,-4.80892 0,-2.40511 -0.481278,-5.77149 -4.568932,-6.01277 v -0.24128 c 3.847657,-0.72127 5.530204,-2.64511 5.530204,-5.29021 0,-2.40382 -1.68383,-6.25147 -10.821694,-6.25147 H 41.869412 Z m 48.09314,-9.62042 h 12.502958 c 3.12894,0 4.8102,0.96255 4.8102,2.64639 0,1.44255 -1.20384,2.6451 -3.84765,2.6451 H 89.962552 Z m -9.137864,9.62042 h 23.805932 c 10.09912,0 12.26296,-3.84765 12.26296,-6.73275 0,-2.64639 -2.16384,-5.05021 -6.01149,-5.53149 3.12639,-0.72127 4.57021,-2.88638 4.57021,-4.56893 0,-4.08894 -4.57021,-5.77148 -9.38043,-5.77148 H 80.824688 Z m 9.137864,-18.51571 h 11.302968 c 3.84766,0 4.80764,1.20254 4.80764,2.64509 0,1.44255 -1.44126,2.40383 -3.36636,2.40383 H 89.962552 Z m 30.538678,18.51571 h 9.13914 v -9.86041 h 18.75445 v 9.86041 h 9.13914 v -22.60465 h -9.13914 v 8.41658 h -18.75445 v -8.41658 h -9.13914 z"
       fill="#224b8c"
       id="path4"
       style="stroke-width:1.2834" />
    <path
       d="m 68.080449,127.49499 c 6.732757,8.6553 14.909347,14.66806 24.287209,16.35062 C 74.573209,142.64305 60.386419,136.87157 49.804722,127.49499 37.060483,116.19202 29.846448,100.32139 29.125173,82.526942 v -2.645101 c 0,-33.905067 23.805931,-61.799935 63.242485,-64.203757 C 79.863416,18.08319 69.043005,27.942328 62.068967,42.129118 h -0.241281 l -20.198271,1.923828 17.794449,2.886384 h 0.481277 c -3.847657,9.137864 -6.011481,19.958275 -6.252763,31.259964 l -20.199554,1.44255 20.199554,2.405104 v 0.481277 c 0.481279,12.022964 3.126382,23.084655 7.214036,32.702515 l -18.274443,1.44384 20.679549,3.12637 c 1.44255,2.88382 3.125098,5.28893 4.808929,7.69404 z m 29.817414,-12.50553 32.042827,0.14117 c 4.04787,-9.52802 6.62753,-20.815588 6.88549,-32.982294 l -38.929601,0.137325 v 32.703799 z m 0,-36.790166 H 136.83132 C 136.60287,66.834717 134.37743,56.159331 130.81726,46.93933 H 97.897863 Z m 0,-31.261247 V 42.129118 H 68.080449 c 7.454032,-16.351899 18.997002,-26.932312 29.817414,-26.932312 14.719397,0 27.847377,10.604799 35.905887,26.932312 h 15.18529 C 138.32776,27.10683 121.9117,18.646606 107.27571,16.159362 c 36.55146,3.847656 59.39483,31.018682 59.39483,63.722479 v 2.645101 c -0.72128,17.794448 -8.41787,33.905068 -21.16082,44.968048 -10.34042,8.89658 -23.80594,14.66806 -39.91656,16.11061 11.05913,-1.68383 23.56465,-6.97404 33.90507,-16.11061 a 60.816844,60.816844 0 0 0 7.3796,-7.69532 h -14.22016 c -8.08675,14.93759 -20.6218,24.52721 -34.759807,24.52721 -8.656587,0 -17.554453,-6.49405 -24.527207,-16.83189 -1.683831,-2.40511 -3.126382,-4.81022 -4.328935,-7.45532 l 28.856142,-0.24129 v -4.80892 l -31.019968,0.24128 C 63.030239,105.6116 60.385135,94.551189 60.145138,82.528225 V 82.046948 H 97.897863 V 78.199294 H 60.145138 c 0,-11.301689 2.403823,-22.1221 5.771485,-31.259964 h 31.98124 z m 0,-4.808929 H 128.78306 C 121.26101,25.863208 109.49473,15.196806 97.897863,15.196806 Z m 54.170067,4.808929 h -16.10549 c 3.73472,9.187916 5.96528,19.847901 6.16678,31.259963 h 18.26803 c -0.2631,-12.293764 -3.40103,-22.6868 -8.32932,-31.259963 z m 8.2061,35.126868 -18.16021,0.06417 c -0.28621,12.166706 -2.87484,23.473525 -7.16141,33.023375 l 15.24816,0.0667 c 5.7548,-8.79006 9.50749,-19.666945 9.97849,-32.692251 0.0373,-0.154009 0.068,-0.306735 0.095,-0.462027 z M 97.897863,144.32688 c 10.987247,0 22.292787,-9.57294 29.875157,-24.52721 H 97.897863 Z"
       fill="#224b8c"
       id="path8"
       style="stroke-width:1.2834" />
  </g>
</svg>
